<mxfile host="app.diagrams.net" modified="2021-02-25T02:32:17.430Z" agent="5.0 (Windows NT 10.0; Win64; x64) AppleWebKit/537.36 (KHTML, like Gecko) Chrome/87.0.4280.88 Safari/537.36" etag="9NULQNGFVWuo3knqO18h" version="14.2.7" type="github">
  <diagram id="8ACWD_Dafs6rEpKmImHS" name="第 1 页">
    <mxGraphModel dx="595" dy="1931" grid="1" gridSize="10" guides="1" tooltips="1" connect="1" arrows="1" fold="1" page="1" pageScale="1" pageWidth="827" pageHeight="1169" math="0" shadow="0">
      <root>
        <mxCell id="0" />
        <mxCell id="1" parent="0" />
        <mxCell id="h3DEKp1L-RRj9ouZcUCp-1" value="" style="rounded=0;whiteSpace=wrap;html=1;align=left;fillColor=#f8cecc;strokeColor=#b85450;" vertex="1" parent="1">
          <mxGeometry x="1520" y="-170" width="280" height="200" as="geometry" />
        </mxCell>
        <mxCell id="h3DEKp1L-RRj9ouZcUCp-2" value="" style="rounded=0;whiteSpace=wrap;html=1;align=left;fillColor=#fff2cc;strokeColor=#d6b656;" vertex="1" parent="1">
          <mxGeometry x="1140" y="-205" width="370" height="130" as="geometry" />
        </mxCell>
        <mxCell id="h3DEKp1L-RRj9ouZcUCp-3" value="" style="rounded=0;whiteSpace=wrap;html=1;align=left;fillColor=#e1d5e7;strokeColor=#9673a6;" vertex="1" parent="1">
          <mxGeometry x="1140" y="-350" width="370" height="130" as="geometry" />
        </mxCell>
        <mxCell id="h3DEKp1L-RRj9ouZcUCp-44" style="edgeStyle=orthogonalEdgeStyle;rounded=0;orthogonalLoop=1;jettySize=auto;html=1;exitX=1;exitY=0.5;exitDx=0;exitDy=0;" edge="1" parent="1" source="h3DEKp1L-RRj9ouZcUCp-4" target="h3DEKp1L-RRj9ouZcUCp-41">
          <mxGeometry relative="1" as="geometry" />
        </mxCell>
        <mxCell id="h3DEKp1L-RRj9ouZcUCp-4" value="" style="rounded=0;whiteSpace=wrap;html=1;align=left;fillColor=#b1ddf0;strokeColor=#10739e;" vertex="1" parent="1">
          <mxGeometry x="1140" y="-490" width="370" height="130" as="geometry" />
        </mxCell>
        <mxCell id="h3DEKp1L-RRj9ouZcUCp-5" style="edgeStyle=orthogonalEdgeStyle;rounded=0;orthogonalLoop=1;jettySize=auto;html=1;" edge="1" parent="1" source="h3DEKp1L-RRj9ouZcUCp-6" target="h3DEKp1L-RRj9ouZcUCp-8">
          <mxGeometry relative="1" as="geometry" />
        </mxCell>
        <mxCell id="h3DEKp1L-RRj9ouZcUCp-6" value="NOT_LOAD" style="rounded=1;whiteSpace=wrap;html=1;align=center;gradientColor=#b3b3b3;fillColor=#f5f5f5;strokeColor=#666666;" vertex="1" parent="1">
          <mxGeometry x="1231" y="-550" width="180" height="40" as="geometry" />
        </mxCell>
        <mxCell id="h3DEKp1L-RRj9ouZcUCp-7" style="edgeStyle=orthogonalEdgeStyle;rounded=0;orthogonalLoop=1;jettySize=auto;html=1;" edge="1" parent="1" source="h3DEKp1L-RRj9ouZcUCp-8" target="h3DEKp1L-RRj9ouZcUCp-10">
          <mxGeometry relative="1" as="geometry" />
        </mxCell>
        <mxCell id="h3DEKp1L-RRj9ouZcUCp-8" value="LOADING_SOURCE_CODE" style="rounded=1;whiteSpace=wrap;html=1;align=center;gradientColor=#7ea6e0;fillColor=#dae8fc;strokeColor=#6c8ebf;" vertex="1" parent="1">
          <mxGeometry x="1231" y="-480" width="180" height="40" as="geometry" />
        </mxCell>
        <mxCell id="h3DEKp1L-RRj9ouZcUCp-9" style="edgeStyle=orthogonalEdgeStyle;rounded=0;orthogonalLoop=1;jettySize=auto;html=1;entryX=0.5;entryY=0;entryDx=0;entryDy=0;" edge="1" parent="1" source="h3DEKp1L-RRj9ouZcUCp-10" target="h3DEKp1L-RRj9ouZcUCp-12">
          <mxGeometry relative="1" as="geometry" />
        </mxCell>
        <mxCell id="h3DEKp1L-RRj9ouZcUCp-10" value="NOT_BOOTSTRAPPED" style="rounded=1;whiteSpace=wrap;html=1;align=center;gradientColor=#7ea6e0;fillColor=#dae8fc;strokeColor=#6c8ebf;" vertex="1" parent="1">
          <mxGeometry x="1231" y="-410" width="180" height="40" as="geometry" />
        </mxCell>
        <mxCell id="h3DEKp1L-RRj9ouZcUCp-11" style="edgeStyle=orthogonalEdgeStyle;rounded=0;orthogonalLoop=1;jettySize=auto;html=1;entryX=0.5;entryY=0;entryDx=0;entryDy=0;" edge="1" parent="1" source="h3DEKp1L-RRj9ouZcUCp-12" target="h3DEKp1L-RRj9ouZcUCp-14">
          <mxGeometry relative="1" as="geometry" />
        </mxCell>
        <mxCell id="h3DEKp1L-RRj9ouZcUCp-12" value="BOOTSTRAPPING" style="rounded=1;whiteSpace=wrap;html=1;align=center;gradientColor=#d5739d;fillColor=#e6d0de;strokeColor=#996185;" vertex="1" parent="1">
          <mxGeometry x="1231" y="-340" width="180" height="40" as="geometry" />
        </mxCell>
        <mxCell id="h3DEKp1L-RRj9ouZcUCp-13" style="edgeStyle=orthogonalEdgeStyle;rounded=0;orthogonalLoop=1;jettySize=auto;html=1;entryX=0.5;entryY=0;entryDx=0;entryDy=0;" edge="1" parent="1" source="h3DEKp1L-RRj9ouZcUCp-14" target="h3DEKp1L-RRj9ouZcUCp-16">
          <mxGeometry relative="1" as="geometry" />
        </mxCell>
        <mxCell id="h3DEKp1L-RRj9ouZcUCp-14" value="NOT_MOUNTED" style="rounded=1;whiteSpace=wrap;html=1;align=center;gradientColor=#d5739d;fillColor=#e6d0de;strokeColor=#996185;" vertex="1" parent="1">
          <mxGeometry x="1231" y="-270" width="180" height="40" as="geometry" />
        </mxCell>
        <mxCell id="h3DEKp1L-RRj9ouZcUCp-15" style="edgeStyle=orthogonalEdgeStyle;rounded=0;orthogonalLoop=1;jettySize=auto;html=1;entryX=0.5;entryY=0;entryDx=0;entryDy=0;" edge="1" parent="1" source="h3DEKp1L-RRj9ouZcUCp-16" target="h3DEKp1L-RRj9ouZcUCp-19">
          <mxGeometry relative="1" as="geometry" />
        </mxCell>
        <mxCell id="h3DEKp1L-RRj9ouZcUCp-16" value="MOUNTING" style="rounded=1;whiteSpace=wrap;html=1;align=center;gradientColor=#ffd966;fillColor=#fff2cc;strokeColor=#d6b656;" vertex="1" parent="1">
          <mxGeometry x="1231" y="-200" width="180" height="40" as="geometry" />
        </mxCell>
        <mxCell id="h3DEKp1L-RRj9ouZcUCp-17" style="edgeStyle=orthogonalEdgeStyle;rounded=0;orthogonalLoop=1;jettySize=auto;html=1;entryX=0.5;entryY=1;entryDx=0;entryDy=0;" edge="1" parent="1" source="h3DEKp1L-RRj9ouZcUCp-19" target="h3DEKp1L-RRj9ouZcUCp-26">
          <mxGeometry relative="1" as="geometry" />
        </mxCell>
        <mxCell id="h3DEKp1L-RRj9ouZcUCp-18" style="edgeStyle=orthogonalEdgeStyle;rounded=0;orthogonalLoop=1;jettySize=auto;html=1;entryX=0;entryY=0.5;entryDx=0;entryDy=0;" edge="1" parent="1" source="h3DEKp1L-RRj9ouZcUCp-19" target="h3DEKp1L-RRj9ouZcUCp-22">
          <mxGeometry relative="1" as="geometry" />
        </mxCell>
        <mxCell id="h3DEKp1L-RRj9ouZcUCp-19" value="MOUNTED" style="rounded=1;whiteSpace=wrap;html=1;align=center;gradientColor=#ffd966;fillColor=#fff2cc;strokeColor=#d6b656;" vertex="1" parent="1">
          <mxGeometry x="1231" y="-130" width="180" height="40" as="geometry" />
        </mxCell>
        <mxCell id="h3DEKp1L-RRj9ouZcUCp-20" style="edgeStyle=orthogonalEdgeStyle;rounded=0;orthogonalLoop=1;jettySize=auto;html=1;" edge="1" parent="1" source="h3DEKp1L-RRj9ouZcUCp-22" target="h3DEKp1L-RRj9ouZcUCp-24">
          <mxGeometry relative="1" as="geometry" />
        </mxCell>
        <mxCell id="h3DEKp1L-RRj9ouZcUCp-21" style="edgeStyle=orthogonalEdgeStyle;rounded=0;orthogonalLoop=1;jettySize=auto;html=1;exitX=0.5;exitY=0;exitDx=0;exitDy=0;entryX=1;entryY=0.5;entryDx=0;entryDy=0;" edge="1" parent="1" source="h3DEKp1L-RRj9ouZcUCp-22" target="h3DEKp1L-RRj9ouZcUCp-14">
          <mxGeometry relative="1" as="geometry" />
        </mxCell>
        <mxCell id="h3DEKp1L-RRj9ouZcUCp-22" value="UNMOUNTEDING" style="rounded=1;whiteSpace=wrap;html=1;align=center;gradientColor=#ea6b66;fillColor=#f8cecc;strokeColor=#b85450;" vertex="1" parent="1">
          <mxGeometry x="1550" y="-135" width="180" height="40" as="geometry" />
        </mxCell>
        <mxCell id="h3DEKp1L-RRj9ouZcUCp-23" style="edgeStyle=orthogonalEdgeStyle;rounded=0;orthogonalLoop=1;jettySize=auto;html=1;exitX=1;exitY=0.5;exitDx=0;exitDy=0;entryX=1;entryY=0.5;entryDx=0;entryDy=0;" edge="1" parent="1" source="h3DEKp1L-RRj9ouZcUCp-24" target="h3DEKp1L-RRj9ouZcUCp-6">
          <mxGeometry relative="1" as="geometry" />
        </mxCell>
        <mxCell id="h3DEKp1L-RRj9ouZcUCp-24" value="UNLOADING" style="rounded=1;whiteSpace=wrap;html=1;align=center;gradientColor=#ea6b66;fillColor=#f8cecc;strokeColor=#b85450;" vertex="1" parent="1">
          <mxGeometry x="1550" y="-40" width="180" height="40" as="geometry" />
        </mxCell>
        <mxCell id="h3DEKp1L-RRj9ouZcUCp-25" style="edgeStyle=orthogonalEdgeStyle;rounded=0;orthogonalLoop=1;jettySize=auto;html=1;" edge="1" parent="1" source="h3DEKp1L-RRj9ouZcUCp-26" target="h3DEKp1L-RRj9ouZcUCp-16">
          <mxGeometry relative="1" as="geometry" />
        </mxCell>
        <mxCell id="h3DEKp1L-RRj9ouZcUCp-26" value="UPDATING" style="rounded=1;whiteSpace=wrap;html=1;align=center;gradientColor=#97d077;fillColor=#d5e8d4;strokeColor=#82b366;" vertex="1" parent="1">
          <mxGeometry x="990" y="-160" width="100" height="40" as="geometry" />
        </mxCell>
        <mxCell id="h3DEKp1L-RRj9ouZcUCp-27" value="未加载" style="text;html=1;strokeColor=none;fillColor=none;align=center;verticalAlign=middle;whiteSpace=wrap;rounded=0;" vertex="1" parent="1">
          <mxGeometry x="1181" y="-540" width="40" height="20" as="geometry" />
        </mxCell>
        <mxCell id="h3DEKp1L-RRj9ouZcUCp-28" value="加载中" style="text;html=1;strokeColor=none;fillColor=none;align=center;verticalAlign=middle;whiteSpace=wrap;rounded=0;" vertex="1" parent="1">
          <mxGeometry x="1181" y="-470" width="40" height="20" as="geometry" />
        </mxCell>
        <mxCell id="h3DEKp1L-RRj9ouZcUCp-29" value="未启动" style="text;html=1;strokeColor=none;fillColor=none;align=center;verticalAlign=middle;whiteSpace=wrap;rounded=0;" vertex="1" parent="1">
          <mxGeometry x="1180" y="-400" width="40" height="20" as="geometry" />
        </mxCell>
        <mxCell id="h3DEKp1L-RRj9ouZcUCp-30" value="启动中" style="text;html=1;strokeColor=none;fillColor=none;align=center;verticalAlign=middle;whiteSpace=wrap;rounded=0;" vertex="1" parent="1">
          <mxGeometry x="1180" y="-330" width="40" height="20" as="geometry" />
        </mxCell>
        <mxCell id="h3DEKp1L-RRj9ouZcUCp-31" value="未挂载" style="text;html=1;strokeColor=none;fillColor=none;align=center;verticalAlign=middle;whiteSpace=wrap;rounded=0;" vertex="1" parent="1">
          <mxGeometry x="1180" y="-260" width="40" height="20" as="geometry" />
        </mxCell>
        <mxCell id="h3DEKp1L-RRj9ouZcUCp-32" value="挂载中" style="text;html=1;strokeColor=none;fillColor=none;align=center;verticalAlign=middle;whiteSpace=wrap;rounded=0;" vertex="1" parent="1">
          <mxGeometry x="1420" y="-190" width="40" height="20" as="geometry" />
        </mxCell>
        <mxCell id="h3DEKp1L-RRj9ouZcUCp-33" value="已挂载" style="text;html=1;strokeColor=none;fillColor=none;align=center;verticalAlign=middle;whiteSpace=wrap;rounded=0;" vertex="1" parent="1">
          <mxGeometry x="1341" y="-150" width="40" height="20" as="geometry" />
        </mxCell>
        <mxCell id="h3DEKp1L-RRj9ouZcUCp-34" value="卸载中" style="text;html=1;strokeColor=none;fillColor=none;align=center;verticalAlign=middle;whiteSpace=wrap;rounded=0;" vertex="1" parent="1">
          <mxGeometry x="1580" y="-160" width="40" height="20" as="geometry" />
        </mxCell>
        <mxCell id="h3DEKp1L-RRj9ouZcUCp-35" value="完全卸载" style="text;html=1;strokeColor=none;fillColor=none;align=center;verticalAlign=middle;whiteSpace=wrap;rounded=0;" vertex="1" parent="1">
          <mxGeometry x="1570" y="-60" width="60" height="20" as="geometry" />
        </mxCell>
        <mxCell id="h3DEKp1L-RRj9ouZcUCp-36" value="更新" style="text;html=1;strokeColor=none;fillColor=none;align=center;verticalAlign=middle;whiteSpace=wrap;rounded=0;" vertex="1" parent="1">
          <mxGeometry x="1020" y="-180" width="40" height="20" as="geometry" />
        </mxCell>
        <mxCell id="h3DEKp1L-RRj9ouZcUCp-37" value="加载阶段" style="text;html=1;strokeColor=none;fillColor=none;align=center;verticalAlign=middle;whiteSpace=wrap;rounded=0;fontStyle=1;fontColor=#FF0000;" vertex="1" parent="1">
          <mxGeometry x="1430" y="-440" width="50" height="20" as="geometry" />
        </mxCell>
        <mxCell id="h3DEKp1L-RRj9ouZcUCp-38" value="启动阶段" style="text;html=1;strokeColor=none;fillColor=none;align=center;verticalAlign=middle;whiteSpace=wrap;rounded=0;fontStyle=1;fontColor=#FF0000;" vertex="1" parent="1">
          <mxGeometry x="1430" y="-310" width="60" height="20" as="geometry" />
        </mxCell>
        <mxCell id="h3DEKp1L-RRj9ouZcUCp-39" value="挂载阶段" style="text;html=1;strokeColor=none;fillColor=none;align=center;verticalAlign=middle;whiteSpace=wrap;rounded=0;fontStyle=1;fontColor=#FF0000;" vertex="1" parent="1">
          <mxGeometry x="1425" y="-150" width="60" height="20" as="geometry" />
        </mxCell>
        <mxCell id="h3DEKp1L-RRj9ouZcUCp-40" value="卸载阶段" style="text;html=1;strokeColor=none;fillColor=none;align=center;verticalAlign=middle;whiteSpace=wrap;rounded=0;fontStyle=1;fontColor=#FF0000;" vertex="1" parent="1">
          <mxGeometry x="1720" width="60" height="20" as="geometry" />
        </mxCell>
        <mxCell id="h3DEKp1L-RRj9ouZcUCp-41" value="LOAD_ERROR" style="rounded=1;whiteSpace=wrap;html=1;align=center;fillColor=#f8cecc;strokeColor=#b85450;gradientColor=#FF0000;" vertex="1" parent="1">
          <mxGeometry x="1540" y="-445" width="180" height="40" as="geometry" />
        </mxCell>
        <mxCell id="h3DEKp1L-RRj9ouZcUCp-45" value="加载报错" style="text;html=1;strokeColor=none;fillColor=none;align=center;verticalAlign=middle;whiteSpace=wrap;rounded=0;" vertex="1" parent="1">
          <mxGeometry x="1603" y="-470" width="54" height="20" as="geometry" />
        </mxCell>
      </root>
    </mxGraphModel>
  </diagram>
</mxfile>
